<svg width="34" height="34" viewBox="0 0 34 34" fill="none" xmlns="http://www.w3.org/2000/svg">
<rect width="34" height="34" fill="#FFA800"/>
<path d="M9.92871 25V7.10449H16.6792C17.8674 7.10449 18.7747 7.16146 19.4014 7.27539C20.2803 7.42188 21.0168 7.70264 21.6108 8.11768C22.2049 8.52458 22.681 9.09831 23.0391 9.83887C23.4053 10.5794 23.5884 11.3932 23.5884 12.2803C23.5884 13.8021 23.1042 15.092 22.1357 16.1499C21.1673 17.1997 19.4176 17.7246 16.8867 17.7246H12.2969V25H9.92871ZM12.2969 15.6128H16.9233C18.4533 15.6128 19.5397 15.328 20.1826 14.7583C20.8255 14.1886 21.147 13.387 21.147 12.3535C21.147 11.6048 20.9557 10.966 20.5732 10.437C20.1989 9.8999 19.7025 9.5459 19.084 9.375C18.6852 9.26921 17.9487 9.21631 16.8745 9.21631H12.2969V15.6128Z" fill="black"/>
</svg>
