<svg width="21" height="22" viewBox="0 0 21 22" fill="none" xmlns="http://www.w3.org/2000/svg">
<path d="M10.4607 0C13.1215 0 15.278 2.2 15.3102 4.917H15.5355C18.4967 4.917 20.9 7.392 20.9 10.428V16.5C20.9 19.536 18.4967 22 15.5355 22H5.36448C2.40329 22 0 19.536 0 16.5V10.428C0 7.392 2.40329 4.917 5.36448 4.917H5.58978C5.61124 3.597 6.1155 2.365 7.02746 1.441C7.95015 0.506 9.13034 0.033 10.4607 0ZM14.527 6.226C14.0871 6.226 13.7223 6.6 13.7223 7.051V8.327C13.7223 8.778 14.0871 9.152 14.527 9.152C14.9776 9.152 15.3317 8.778 15.3317 8.327V7.051C15.3317 6.6 14.9776 6.226 14.527 6.226ZM6.27644 6.226C5.83655 6.226 5.47177 6.6 5.47177 7.051V8.327C5.47177 8.778 5.83655 9.152 6.27644 9.152C6.72705 9.152 7.08111 8.778 7.08111 8.327V7.051C7.08111 6.6 6.72705 6.226 6.27644 6.226ZM10.4607 1.65C9.6346 1.65 8.77628 1.991 8.154 2.618C7.55318 3.234 7.22059 4.048 7.19913 4.917H13.7009C13.6687 3.113 12.231 1.65 10.4607 1.65Z" fill="#200E32"/>
</svg>
