<svg width="50" height="50" viewBox="0 0 50 50" fill="none" xmlns="http://www.w3.org/2000/svg">
<g clip-path="url(#clip0)">
<path d="M11.0811 30.2148L9.34062 36.7121L2.97939 36.8467C1.07832 33.3206 0 29.2863 0 24.9992C0 20.8536 1.0082 16.9442 2.79531 13.502H2.79668L8.45996 14.5402L10.9408 20.1695C10.4216 21.6833 10.1386 23.3083 10.1386 24.9992C10.1388 26.8344 10.4712 28.5927 11.0811 30.2148Z" fill="#FBBB00"/>
<path d="M49.5634 20.3301C49.8505 21.8424 50.0002 23.4042 50.0002 25.0004C50.0002 26.7902 49.812 28.5361 49.4535 30.2202C48.2365 35.951 45.0565 40.9551 40.6514 44.4963L40.65 44.4949L33.5168 44.131L32.5072 37.8287C35.4303 36.1145 37.7146 33.4317 38.918 30.2202H25.5498V20.3301H39.113H49.5634Z" fill="#518EF8"/>
<path d="M40.6498 44.4936L40.6512 44.495C36.3669 47.9387 30.9245 49.9991 25.0001 49.9991C15.4795 49.9991 7.20205 44.6777 2.97949 36.8467L11.0812 30.2148C13.1924 35.8494 18.6278 39.8604 25.0001 39.8604C27.7391 39.8604 30.3051 39.12 32.5069 37.8274L40.6498 44.4936Z" fill="#28B446"/>
<path d="M40.9575 5.75547L32.8586 12.3859C30.5798 10.9615 27.886 10.1387 25.0001 10.1387C18.4836 10.1387 12.9465 14.3337 10.941 20.1703L2.79678 13.5027H2.79541C6.95615 5.48076 15.338 0 25.0001 0C31.066 0 36.6278 2.16074 40.9575 5.75547Z" fill="#F14336"/>
</g>
<defs>
<clipPath id="clip0">
<rect width="50" height="50" fill="white"/>
</clipPath>
</defs>
</svg>
