<svg width="18" height="16" viewBox="0 0 18 16" fill="none" xmlns="http://www.w3.org/2000/svg">
<path d="M13.2791 0C14.4711 0 15.6178 0.471111 16.4613 1.31644C17.3058 2.16 17.7778 3.29778 17.7778 4.48889V11.5111C17.7778 13.9911 15.76 16 13.2791 16H4.49778C2.01689 16 0 13.9911 0 11.5111V4.48889C0 2.00889 2.008 0 4.49778 0H13.2791ZM14.2844 4.62222C14.0978 4.61244 13.92 4.67556 13.7858 4.8L9.77778 8C9.26222 8.42756 8.52356 8.42756 8 8L4 4.8C3.72356 4.59556 3.34133 4.62222 3.11111 4.86222C2.87111 5.10222 2.84444 5.48445 3.048 5.75111L3.16444 5.86667L7.20889 9.02222C7.70667 9.41333 8.31022 9.62667 8.94222 9.62667C9.57245 9.62667 10.1867 9.41333 10.6836 9.02222L14.6933 5.81333L14.7644 5.74222C14.9769 5.48445 14.9769 5.11111 14.7547 4.85333C14.6311 4.72089 14.4613 4.64 14.2844 4.62222Z" fill="#535353"/>
</svg>
