<svg width="40" height="39" viewBox="0 0 40 39" fill="none" xmlns="http://www.w3.org/2000/svg">
<path d="M14.1001 0.000321098C15.9621 -0.0188136 17.7001 0.818264 18.8401 2.23935L20.6001 4.51698C21.1601 5.19832 22.0001 5.60712 22.9001 5.60712H29.0401C36.4202 5.60712 40.0202 9.44211 40.0003 17.3067V26.7871C40.0003 34.3014 35.2402 38.9345 27.5001 38.9345H12.4801C4.78002 38.9345 0 34.3014 0 26.7677V12.148C0 4.08871 3.68002 0.000321098 10.9401 0.000321098H14.1001ZM29.2601 22.9521H10.7401C9.90005 22.9521 9.24005 23.5946 9.24005 24.4122C9.24005 25.2103 9.90005 25.8722 10.7401 25.8722H29.2601C30.0802 25.8722 30.7402 25.2103 30.7402 24.4122C30.7402 23.5946 30.0802 22.9521 29.2601 22.9521Z" fill="#1976D2"/>
</svg>
