<svg width="25" height="22" viewBox="0 0 25 22" fill="none" xmlns="http://www.w3.org/2000/svg">
<path d="M18.2588 0C19.8978 0 21.4744 0.647778 22.6343 1.81011C23.7954 2.97 24.4444 4.53444 24.4444 6.17222V15.8278C24.4444 19.2378 21.67 22 18.2588 22H6.18444C2.77322 22 0 19.2378 0 15.8278V6.17222C0 2.76222 2.761 0 6.18444 0H18.2588ZM19.6411 6.35556C19.3844 6.34211 19.14 6.42889 18.9554 6.6L13.4444 11C12.7356 11.5879 11.7199 11.5879 11 11L5.5 6.6C5.11989 6.31889 4.59433 6.35556 4.27778 6.68556C3.94778 7.01556 3.91111 7.54111 4.191 7.90778L4.35111 8.06667L9.91222 12.4056C10.5967 12.9433 11.4266 13.2367 12.2956 13.2367C13.1621 13.2367 14.0067 12.9433 14.6899 12.4056L20.2033 7.99333L20.3011 7.89556C20.5932 7.54111 20.5932 7.02778 20.2877 6.67333C20.1178 6.49122 19.8843 6.38 19.6411 6.35556Z" fill="#200E32"/>
</svg>
