<svg width="37" height="38" viewBox="0 0 37 38" fill="none" xmlns="http://www.w3.org/2000/svg">
<rect x="0.0800781" width="36.7596" height="37.4948" rx="3" fill="#FFA800"/>
<g clip-path="url(#clip0)">
<path d="M11.7709 19.9242C11.2076 21.0316 11.8472 21.5609 13.3066 22.4652C14.5472 23.2316 16.2611 23.5119 17.3621 23.624C16.9109 24.0578 18.9786 22.0691 13.0235 27.7972C11.7608 29.0075 13.7936 30.9493 15.0554 29.7647L18.4713 26.4701C19.779 27.7282 21.0325 28.934 21.8872 29.7693C23.1499 30.9585 25.1818 29.0332 23.9329 27.8018C23.8391 27.7126 19.3039 23.3621 19.5805 23.6286C20.6953 23.5165 22.3834 23.2197 23.6094 22.4698L23.6085 22.4689C25.0678 21.56 25.7074 21.0316 25.1524 19.9242C24.8169 19.2956 23.9126 18.7699 22.7088 19.6788C22.7088 19.6788 21.0831 20.924 18.4612 20.924C15.8384 20.924 14.2136 19.6788 14.2136 19.6788C13.0107 18.7653 12.1027 19.2956 11.7709 19.9242Z" fill="white"/>
<path d="M18.4589 19.2453C21.6552 19.2453 24.2651 16.7475 24.2651 13.6725C24.2651 10.5847 21.6552 8.08691 18.4589 8.08691C15.2618 8.08691 12.6519 10.5847 12.6519 13.6725C12.6519 16.7475 15.2618 19.2453 18.4589 19.2453ZM18.4589 10.9165C20.0295 10.9165 21.3106 12.1488 21.3106 13.6725C21.3106 15.1834 20.0295 16.4157 18.4589 16.4157C16.8884 16.4157 15.6073 15.1834 15.6073 13.6725C15.6064 12.1479 16.8875 10.9165 18.4589 10.9165Z" fill="white"/>
</g>
<defs>
<clipPath id="clip0">
<rect width="22.0557" height="22.0557" fill="white" transform="translate(7.43213 8.08691)"/>
</clipPath>
</defs>
</svg>
