<svg width="25" height="22" viewBox="0 0 25 22" fill="none" xmlns="http://www.w3.org/2000/svg">
<path d="M17.7412 0C21.9565 0 24.4444 2.42561 24.4444 6.57776H19.2731V6.62013C16.873 6.62013 14.9274 8.51704 14.9274 10.857C14.9274 13.197 16.873 15.0939 19.2731 15.0939H24.4444V15.4752C24.4444 19.5744 21.9565 22 17.7412 22H6.70321C2.4879 22 0 19.5744 0 15.4752V6.5248C0 2.42561 2.4879 0 6.70321 0H17.7412ZM23.5319 8.39962C24.0359 8.39962 24.4444 8.79797 24.4444 9.28936V12.3823C24.4386 12.8713 24.0334 13.2663 23.5319 13.272H19.3709C18.1558 13.288 17.0934 12.4769 16.8178 11.3231C16.6798 10.6068 16.8735 9.86769 17.3471 9.30382C17.8207 8.73995 18.5256 8.40898 19.2731 8.39962H23.5319ZM19.8598 9.82956H19.4578C19.211 9.82673 18.9733 9.92034 18.7978 10.0895C18.6222 10.2586 18.5235 10.4893 18.5235 10.7299C18.5234 11.2347 18.94 11.6456 19.4578 11.6514H19.8598C20.3758 11.6514 20.7941 11.2436 20.7941 10.7405C20.7941 10.2374 20.3758 9.82956 19.8598 9.82956ZM12.6894 4.7559H5.79062C5.27882 4.75586 4.86225 5.15728 4.8563 5.65623C4.8563 6.16107 5.27285 6.57195 5.79062 6.57776H12.6894C13.2054 6.57776 13.6237 6.16992 13.6237 5.66683C13.6237 5.16373 13.2054 4.7559 12.6894 4.7559Z" fill="#200E32"/>
</svg>
