<svg width="20" height="23" viewBox="0 0 20 23" fill="none" xmlns="http://www.w3.org/2000/svg">
<path d="M10.0014 0C6.80944 0 4.2002 2.60924 4.2002 5.80117C4.2002 8.9931 6.80944 11.6023 10.0014 11.6023C13.1933 11.6023 15.8025 8.9931 15.8025 5.80117C15.8025 2.60924 13.1933 0 10.0014 0Z" fill="black"/>
<path d="M19.9573 16.2384C19.8052 15.8584 19.6026 15.5038 19.3746 15.1745C18.2093 13.4518 16.4107 12.3119 14.3841 12.0332C14.1308 12.0079 13.8522 12.0585 13.6495 12.2105C12.5855 12.9958 11.3189 13.4012 10.0016 13.4012C8.68424 13.4012 7.41763 12.9958 6.35366 12.2105C6.15098 12.0585 5.87232 11.9825 5.61901 12.0332C3.5924 12.3119 1.76847 13.4518 0.628517 15.1745C0.400525 15.5038 0.197845 15.8838 0.0458831 16.2384C-0.0300978 16.3905 -0.00478701 16.5678 0.0711939 16.7198C0.273874 17.0744 0.527176 17.4291 0.755168 17.7331C1.10981 18.2144 1.48981 18.6451 1.92048 19.0504C2.27513 19.405 2.68044 19.7343 3.0858 20.0637C5.08705 21.5583 7.49366 22.3436 9.97626 22.3436C12.4589 22.3436 14.8655 21.5583 16.8667 20.0637C17.272 19.7597 17.6773 19.405 18.032 19.0504C18.4373 18.6451 18.8427 18.2144 19.1973 17.7331C19.4506 17.4038 19.6787 17.0744 19.8813 16.7198C20.0079 16.5678 20.0332 16.3904 19.9573 16.2384Z" fill="black"/>
</svg>
