<svg width="50" height="50" viewBox="0 0 50 50" fill="none" xmlns="http://www.w3.org/2000/svg">
<path d="M46.8139 0H3.19314C1.42897 0 0 1.42897 0 3.18961V46.8104C0 48.571 1.42897 50 3.19314 50H46.8104C48.571 50 50 48.571 50 46.8104V3.18961C50.0035 1.42545 48.5746 0 46.8139 0ZM41.4756 30.4672C42.3894 31.3986 44.3723 32.9617 44.0124 34.553C43.6808 36.0137 41.5002 35.4809 39.3832 35.5656C36.9663 35.6679 35.5338 35.7208 34.0802 34.553C33.3957 33.999 32.9934 33.3427 32.3372 32.6088C31.7409 31.9455 30.9893 30.7565 29.9661 30.8023C28.1279 30.8941 28.703 33.4557 28.0502 35.2022C17.8322 36.8111 13.7287 30.4989 10.1087 24.3737C8.35509 21.4064 5.82175 15.0342 5.82175 15.0342L13.0478 15.0095C13.0478 15.0095 15.3659 19.2259 15.9798 20.3126C16.502 21.237 17.0771 21.9709 17.6699 22.7966C18.1674 23.4811 18.9542 24.8218 19.8151 24.7124C21.2159 24.5325 21.4699 19.0989 20.6019 17.2782C20.2562 16.5408 19.427 16.2833 18.5696 16.0327C18.8589 14.2051 26.6742 13.824 27.9373 15.2424C29.7721 17.3029 26.6671 23.04 29.1793 24.7124C32.7076 22.8636 35.7208 15.1224 35.7208 15.1224L44.1818 15.1754C44.1818 15.1754 42.8587 19.36 41.472 21.2159C40.664 22.3026 37.9825 24.723 38.0884 26.5189C38.173 27.9409 40.3535 29.324 41.4756 30.4672Z" fill="#1976D2"/>
</svg>
